<?xml version="1.0" standalone="no"?>
<!DOCTYPE svg PUBLIC "-//W3C//DTD SVG 20010904//EN"
 "http://www.w3.org/TR/2001/REC-SVG-20010904/DTD/svg10.dtd">
<svg version="1.0" xmlns="http://www.w3.org/2000/svg"
 width="275.000000pt" height="183.000000pt" viewBox="0 0 275.000000 183.000000"
 preserveAspectRatio="xMidYMid meet">

<g transform="translate(0.000000,183.000000) scale(0.100000,-0.100000)"
fill="#ffffff" stroke="none">
<path d="M690 1310 l0 -110 645 0 645 0 0 110 0 110 -645 0 -645 0 0 -110z"/>
<path d="M690 920 l0 -110 645 0 645 0 0 110 0 110 -645 0 -645 0 0 -110z"/>
<path d="M690 510 l0 -110 645 0 645 0 0 110 0 110 -645 0 -645 0 0 -110z"/>
</g>
</svg>
